<svg width="393" height="123" viewBox="0 0 393 123" fill="none" xmlns="http://www.w3.org/2000/svg">
<mask id="mask0_2172_17572" style="mask-type:luminance" maskUnits="userSpaceOnUse" x="0" y="0" width="111" height="111">
<path fill-rule="evenodd" clip-rule="evenodd" d="M17.8612 0C7.99672 0 0 7.99672 0 17.8612V92.6548C0 95.0449 0.469424 97.3249 1.3211 99.4086C1.91089 100.851 3.83441 100.747 4.54952 99.3622C24.1614 61.3782 63.2073 35.0597 108.537 33.5575C109.633 33.5212 110.516 32.6289 110.516 31.5325V17.8612C110.516 7.99672 102.519 0 92.6548 0H17.8612ZM110.516 47.8374C110.516 46.7127 109.589 45.8052 108.465 45.8474C66.8359 47.41 31.1644 72.2562 14.0949 107.741C13.5594 108.854 14.1768 110.179 15.4006 110.348C16.2049 110.458 17.0264 110.516 17.8612 110.516H92.6548C102.519 110.516 110.516 102.519 110.516 92.6548V47.8374Z" fill="white"/>
</mask>
<g mask="url(#mask0_2172_17572)">
<path d="M12.0563 17.8613C12.0563 14.6553 14.6552 12.0564 17.8612 12.0564V-12.0562C1.33821 -12.0562 -12.0563 1.33834 -12.0563 17.8613H12.0563ZM12.0563 92.6549V17.8613H-12.0563V92.6549H12.0563ZM12.481 94.8474C12.2111 94.1865 12.0563 93.4537 12.0563 92.6549H-12.0563C-12.0563 96.6358 -11.2722 100.464 -9.83882 103.971L12.481 94.8474ZM108.138 21.508C58.2855 23.1601 15.3787 52.1094 -6.16311 93.831L15.2621 104.893C32.9441 70.6472 68.1292 46.9597 108.936 45.6073L108.138 21.508ZM98.4597 17.8613V31.5326H122.572V17.8613H98.4597ZM92.6548 12.0564C95.8609 12.0564 98.4597 14.6553 98.4597 17.8613H122.572C122.572 1.33835 109.178 -12.0562 92.6548 -12.0562V12.0564ZM17.8612 12.0564H92.6548V-12.0562H17.8612V12.0564ZM108.013 33.7998C61.7628 35.5358 22.1699 63.1427 3.23031 102.515L24.9595 112.968C40.159 81.37 71.9096 59.2847 108.917 57.8954L108.013 33.7998ZM17.8612 98.4598C17.5784 98.4598 17.3068 98.4403 17.0463 98.4046L13.7549 122.292C15.103 122.477 16.4743 122.572 17.8612 122.572V98.4598ZM92.6548 98.4598H17.8612V122.572H92.6548V98.4598ZM98.4597 92.6549C98.4597 95.861 95.8609 98.4598 92.6548 98.4598V122.572C109.178 122.572 122.572 109.178 122.572 92.6549H98.4597ZM98.4597 47.8375V92.6549H122.572V47.8375H98.4597ZM108.917 57.8954C103.095 58.1137 98.4597 53.4337 98.4597 47.8375H122.572C122.572 39.992 116.082 33.4969 108.013 33.7998L108.917 57.8954ZM108.936 45.6073C116.373 45.3609 122.572 39.289 122.572 31.5326H98.4597C98.4597 25.969 102.892 21.6818 108.138 21.508L108.936 45.6073ZM3.23031 102.515C-0.395228 110.052 3.42022 120.867 13.7549 122.292L17.0463 98.4046C24.9334 99.4913 27.5141 107.657 24.9595 112.968L3.23031 102.515ZM-9.83882 103.971C-7.50883 109.671 -2.06387 112.653 3.24182 112.497C8.24092 112.35 12.8815 109.504 15.2621 104.893L-6.16311 93.831C-4.49754 90.6054 -1.17631 88.5039 2.5348 88.3951C6.55254 88.2773 10.7409 90.5897 12.481 94.8474L-9.83882 103.971Z" fill="#7269F8"/>
</g>
<path fill-rule="evenodd" clip-rule="evenodd" d="M158.924 43.3841C162.189 40.1189 166.129 38.4862 170.744 38.4862C175.359 38.4862 179.299 40.1189 182.564 43.3841C185.83 46.6494 187.462 50.5895 187.462 55.2044C187.462 59.8193 185.83 63.7593 182.564 67.0246C179.299 70.2899 175.359 71.9225 170.744 71.9225C166.129 71.9225 162.189 70.2899 158.924 67.0246C155.659 63.7593 154.026 59.8193 154.026 55.2044C154.026 50.5895 155.659 46.6494 158.924 43.3841ZM183.544 86.0939C184.894 85.528 186.2 84.8749 187.462 84.1348V88.6408H204.181V55.2044C204.181 50.7636 203.332 46.497 201.634 42.4045C199.936 38.3121 197.519 34.6985 194.385 31.5639C191.25 28.4292 187.636 26.0129 183.544 24.315C179.451 22.617 175.185 21.7681 170.744 21.7681C166.303 21.7681 162.037 22.617 157.944 24.315C153.852 26.0129 150.238 28.4292 147.104 31.5639C143.969 34.6985 141.553 38.3121 139.855 42.4045C138.157 46.497 137.308 50.7636 137.308 55.2044C137.308 59.6451 138.157 63.9117 139.855 68.0042C141.553 72.0967 143.969 75.7102 147.104 78.8451C150.238 81.9797 153.852 84.396 157.944 86.0939C162.037 87.7919 166.303 88.6408 170.744 88.6408C175.185 88.6408 179.451 87.7919 183.544 86.0939ZM211.299 55.2044V21.7681H228.017V55.2044C228.017 59.8193 229.649 63.7593 232.915 67.0246C236.18 70.2899 240.12 71.9225 244.735 71.9225C249.35 71.9225 253.29 70.2899 256.556 67.0246C259.821 63.7593 261.453 59.8193 261.453 55.2044V21.7681H278.172V88.6408C278.172 93.0816 277.323 97.3482 275.625 101.441C273.927 105.533 271.51 109.147 268.376 112.281C265.241 115.416 261.628 117.832 257.535 119.53C253.443 121.228 249.176 122.077 244.735 122.077V105.359C249.35 105.359 253.29 103.726 256.556 100.461C259.821 97.1958 261.453 93.2557 261.453 88.6408V84.1348C260.191 84.8749 258.885 85.528 257.535 86.0939C253.443 87.7919 249.176 88.6408 244.735 88.6408C240.294 88.6408 236.028 87.7919 231.935 86.0939C227.843 84.396 224.229 81.9797 221.094 78.8451C217.96 75.7102 215.544 72.0967 213.846 68.0042C212.148 63.9118 211.299 59.6451 211.299 55.2044ZM305.926 86.0939C310.018 87.7919 314.285 88.6408 318.725 88.6408C323.166 88.6408 327.433 87.7919 331.525 86.0939C335.618 84.396 339.231 81.9797 342.366 78.8451C345.5 75.7102 347.917 72.0967 349.615 68.0042C351.312 63.9117 352.161 59.6451 352.161 55.2044C352.161 50.7636 351.312 46.497 349.615 42.4045C347.917 38.3121 345.5 34.6985 342.366 31.5639C339.231 28.4292 335.618 26.0129 331.525 24.315C327.433 22.617 323.166 21.7681 318.725 21.7681C314.285 21.7681 310.018 22.617 305.926 24.315C301.833 26.0129 298.22 28.4292 295.085 31.5639C291.95 34.6985 289.534 38.3121 287.836 42.4045C286.138 46.497 285.289 50.7636 285.289 55.2044C285.289 59.6451 286.138 63.9117 287.836 68.0042C289.534 72.0967 291.95 75.7102 295.085 78.8451C298.22 81.9797 301.833 84.396 305.926 86.0939ZM330.545 67.0246C327.28 70.2899 323.34 71.9225 318.725 71.9225C314.11 71.9225 310.17 70.2899 306.905 67.0246C303.64 63.7593 302.007 59.8193 302.007 55.2044C302.007 50.5895 303.64 46.6494 306.905 43.3841C310.17 40.1189 314.11 38.4862 318.725 38.4862C323.34 38.4862 327.28 40.1189 330.545 43.3841C333.811 46.6494 335.443 50.5895 335.443 55.2044C335.443 59.8193 333.811 63.7593 330.545 67.0246ZM358.627 88.6408H375.345V55.2044C375.345 50.5895 376.978 46.6494 380.243 43.3841C383.508 40.1189 387.448 38.4862 392.063 38.4862V21.7681C387.623 21.7681 383.356 22.617 379.263 24.315C375.171 26.0129 371.558 28.4292 368.423 31.5639C365.288 34.6985 362.872 38.3121 361.174 42.4045C359.476 46.497 358.627 50.7636 358.627 55.2044V88.6408Z" fill="#334155"/>
</svg>
