<?xml version="1.0" encoding="UTF-8"?>
<svg version="1.1" xmlns="http://www.w3.org/2000/svg" width="1024" height="1024">
<path d="M0 0 C11.6443041 10.83951418 14.19296865 23.18692545 14.80859375 38.68359375 C15.47417129 79.40347787 3.35021716 120.28352807 -14.19140625 156.68359375 C-14.52495117 157.38629395 -14.85849609 158.08899414 -15.20214844 158.81298828 C-30.22736566 190.38089492 -51.00131974 218.43794761 -74.71875 243.98828125 C-76.70995691 246.15879116 -78.61739697 248.36106509 -80.50390625 250.62109375 C-83.92209161 254.56708714 -87.69946096 258.11629621 -91.50390625 261.68359375 C-92.1275708 262.27261475 -92.75123535 262.86163574 -93.39379883 263.46850586 C-97.94888347 267.68359375 -97.94888347 267.68359375 -100.19140625 267.68359375 C-100.52140625 268.67359375 -100.85140625 269.66359375 -101.19140625 270.68359375 C-103.01953125 272.375 -103.01953125 272.375 -105.44140625 274.24609375 C-106.35019531 274.95121094 -107.25898437 275.65632813 -108.1953125 276.3828125 C-109.18402344 277.14207031 -110.17273438 277.90132812 -111.19140625 278.68359375 C-112.19042969 279.47378906 -113.18945312 280.26398438 -114.21875 281.078125 C-122.2473996 287.40661952 -130.57325241 293.18766622 -139.19140625 298.68359375 C-139.77051758 299.05307129 -140.34962891 299.42254883 -140.94628906 299.80322266 C-181.11014702 325.1704693 -225.87573688 341.71472109 -273.19140625 346.68359375 C-274.00416016 346.78003174 -274.81691406 346.87646973 -275.65429688 346.97583008 C-286.70585343 348.12016853 -297.84604938 347.79107951 -308.94140625 347.74609375 C-311.10286355 347.74106937 -313.26432197 347.73650812 -315.42578125 347.73242188 C-320.68101452 347.72148912 -325.93620502 347.70482523 -331.19140625 347.68359375 C-331.19140625 347.02359375 -331.19140625 346.36359375 -331.19140625 345.68359375 C-333.08439453 345.73193359 -333.08439453 345.73193359 -335.015625 345.78125 C-340.4532331 345.77383171 -345.6519705 345.03263534 -351.00390625 344.12109375 C-352.02057373 343.95125977 -353.03724121 343.78142578 -354.0847168 343.60644531 C-366.10346592 341.49633177 -377.87715489 338.40414644 -389.66137695 335.26269531 C-392.24622514 334.57203322 -392.24622514 334.57203322 -395.19140625 334.68359375 C-395.19140625 334.02359375 -395.19140625 333.36359375 -395.19140625 332.68359375 C-395.83980469 332.58046875 -396.48820313 332.47734375 -397.15625 332.37109375 C-450.26378942 320.34158675 -504.30930169 279.94075844 -539.23828125 238.97265625 C-540.75015976 237.20073463 -542.28625466 235.44945989 -543.83203125 233.70703125 C-551.96002813 224.49448702 -559.16408348 214.75279913 -566.19140625 204.68359375 C-566.62662598 204.06967773 -567.0618457 203.45576172 -567.51025391 202.82324219 C-591.31308446 169.18039884 -619.61426608 117.59728775 -615.19140625 74.68359375 C-614.50333461 71.66206175 -613.58276566 69.51600397 -612.19140625 66.68359375 C-611.71703125 65.67296875 -611.24265625 64.66234375 -610.75390625 63.62109375 C-598.51753374 49.59403258 -575.14190564 47.53555355 -557.56640625 45.99609375 C-555.10940893 45.86411789 -552.65064096 45.76370702 -550.19140625 45.68359375 C-549.38622559 45.6563623 -548.58104492 45.62913086 -547.75146484 45.60107422 C-535.11954387 45.23422939 -522.63740715 45.80126705 -510.06640625 46.99609375 C-508.79933838 47.1137207 -507.53227051 47.23134766 -506.22680664 47.35253906 C-498.74753741 48.1180372 -491.5349145 49.34745335 -484.21923828 51.08666992 C-481.2622946 51.77818859 -481.2622946 51.77818859 -478.47998047 51.64575195 C-476.19140625 51.68359375 -476.19140625 51.68359375 -473.19140625 53.68359375 C-471.60857767 54.23726956 -470.00635488 54.73669545 -468.39453125 55.19921875 C-467.44328369 55.47765625 -466.49203613 55.75609375 -465.51196289 56.04296875 C-464.4986792 56.336875 -463.48539551 56.63078125 -462.44140625 56.93359375 C-453.10183505 59.71266802 -444.14886136 62.8303868 -435.19140625 66.68359375 C-434.00675781 67.16957031 -432.82210937 67.65554688 -431.6015625 68.15625 C-390.06650693 85.42540271 -353.50559652 111.86228657 -320.68994141 142.29394531 C-318.04992776 144.74213001 -315.40284649 147.18257568 -312.75390625 149.62109375 C-311.80644531 150.49636719 -310.85898437 151.37164063 -309.8828125 152.2734375 C-307.38594526 154.50938392 -304.83077161 156.6190448 -302.19140625 158.68359375 C-301.66933594 158.04035156 -301.14726562 157.39710938 -300.609375 156.734375 C-295.03041096 149.88524402 -289.36912503 143.11324097 -283.64160156 136.38818359 C-282.17337586 134.66240046 -280.70967092 132.93285103 -279.24609375 131.203125 C-272.9332896 123.76425308 -266.45236098 116.51494252 -259.78613281 109.39160156 C-258.09998816 107.58568179 -256.42251217 105.77198118 -254.74609375 103.95703125 C-236.21758792 83.93470294 -236.21758792 83.93470294 -226.17578125 75.38671875 C-223.84519501 73.38645182 -221.58446551 71.31693047 -219.31640625 69.24609375 C-214.43167894 64.84390029 -209.36318736 60.74133927 -204.19140625 56.68359375 C-203.1425458 55.84330019 -202.09440486 55.00210798 -201.046875 54.16015625 C-187.99243654 43.71357089 -174.47419834 34.07223791 -159.98242188 25.71728516 C-158.21801471 24.69895092 -156.46209308 23.66715136 -154.70703125 22.6328125 C-117.93843866 1.21219578 -39.12901095 -32.62106734 0 0 Z " fill="#A067FD" transform="translate(812.19140625,484.31640625)"/>
<path d="M0 0 C12.63192097 -0.36684483 25.1140577 0.20019283 37.68505859 1.39501953 C39.5856604 1.57145996 39.5856604 1.57145996 41.5246582 1.75146484 C49.00392743 2.51696298 56.21655035 3.74637913 63.53222656 5.4855957 C66.48917025 6.17711437 66.48917025 6.17711437 69.27148438 6.04467773 C71.56005859 6.08251953 71.56005859 6.08251953 74.56005859 8.08251953 C76.14288717 8.63619534 77.74510997 9.13562123 79.35693359 9.59814453 C80.30818115 9.87658203 81.25942871 10.15501953 82.23950195 10.44189453 C83.25278564 10.73580078 84.26606934 11.02970703 85.31005859 11.33251953 C94.64962979 14.1115938 103.60260348 17.22931258 112.56005859 21.08251953 C113.74470703 21.56849609 114.92935547 22.05447266 116.14990234 22.55517578 C157.68378047 39.82383895 194.25684923 66.25821961 227.06152344 96.70166016 C228.63041131 98.14734765 230.21252583 99.57730406 231.79833984 101.00439453 C232.33378418 101.48835693 232.86922852 101.97231934 233.42089844 102.47094727 C234.9016274 103.80837248 236.38504791 105.14281604 237.86865234 106.47705078 C240.68799566 109.20637152 243.1032061 112.02817478 245.56005859 115.08251953 C244.79822266 115.96552734 244.03638672 116.84853516 243.25146484 117.75830078 C242.20834018 118.9704062 241.16538415 120.18265676 240.12255859 121.39501953 C239.29014648 122.36060791 239.29014648 122.36060791 238.44091797 123.34570312 C235.38693326 126.90191826 232.43601654 130.50479749 229.56005859 134.20751953 C218.28454174 148.05032165 205.04428163 160.65387894 190.56005859 171.08251953 C189.69509766 171.71931641 188.83013672 172.35611328 187.93896484 173.01220703 C181.37912324 177.73529298 174.50505044 181.95419195 167.56005859 186.08251953 C166.95419922 186.44635742 166.34833984 186.81019531 165.72412109 187.18505859 C130.76422089 208.05582889 87.42517805 219.68449052 46.91455078 210.68212891 C36.87956905 208.12655911 26.55773921 204.67365403 18.25146484 198.34423828 C16.56060701 197.00331879 16.56060701 197.00331879 14.44677734 196.03955078 C12.03260602 194.81497113 10.98209619 193.35777968 9.56005859 191.08251953 C9.56005859 190.42251953 9.56005859 189.76251953 9.56005859 189.08251953 C8.67060547 188.69386719 8.67060547 188.69386719 7.76318359 188.29736328 C5.40147719 186.99507482 4.05119414 185.68953475 2.31005859 183.64501953 C1.52888672 182.74976563 1.52888672 182.74976563 0.73193359 181.83642578 C-0.43994141 180.08251953 -0.43994141 180.08251953 -0.43994141 177.08251953 C-1.03452148 176.83356934 -1.62910156 176.58461914 -2.24169922 176.328125 C-4.77074945 174.89507144 -5.91027586 173.49737804 -7.61181641 171.15283203 C-8.1902832 170.36271729 -8.76875 169.57260254 -9.36474609 168.75854492 C-9.96706055 167.91670654 -10.569375 167.07486816 -11.18994141 166.20751953 C-11.81030273 165.352146 -12.43066406 164.49677246 -13.06982422 163.61547852 C-28.43994141 142.31602761 -28.43994141 142.31602761 -28.43994141 137.08251953 C-29.42994141 136.75251953 -30.41994141 136.42251953 -31.43994141 136.08251953 C-32.73925781 134.28271484 -32.73925781 134.28271484 -34.04150391 131.91064453 C-34.5276416 131.02787842 -35.0137793 130.1451123 -35.51464844 129.2355957 C-36.02624512 128.27758057 -36.5378418 127.31956543 -37.06494141 126.33251953 C-37.5932959 125.35710205 -38.12165039 124.38168457 -38.66601562 123.37670898 C-42.79804601 115.61091147 -46.38354845 107.67879731 -49.67285156 99.52294922 C-50.18017822 98.27433105 -50.18017822 98.27433105 -50.69775391 97.00048828 C-50.9879541 96.26596436 -51.2781543 95.53144043 -51.57714844 94.7746582 C-52.32608115 92.89208246 -52.32608115 92.89208246 -54.43994141 92.08251953 C-55.8183141 89.13117534 -56.73871412 85.98784929 -57.75244141 82.89501953 C-58.06004395 81.9647998 -58.36764648 81.03458008 -58.68457031 80.07617188 C-72.42821686 37.34436599 -72.42821686 37.34436599 -64.43994141 21.08251953 C-63.72837891 19.56658203 -63.72837891 19.56658203 -63.00244141 18.02001953 C-50.76606889 3.99295836 -27.3904408 1.93447933 -9.81494141 0.39501953 C-6.54383635 0.21931446 -3.27377003 0.11071986 0 0 Z " fill="#B57EFE" transform="translate(264.43994140625,529.91748046875)"/>
<path d="M0 0 C3.375 0.125 3.375 0.125 7 1 C10.22605695 5.09210583 11.13694122 9.75129217 12.27734375 14.72265625 C12.48462601 15.59541702 12.69190826 16.4681778 12.9054718 17.36738586 C13.59102167 20.26388992 14.26416811 23.1631336 14.9375 26.0625 C15.41889294 28.10449538 15.9010031 30.1463218 16.38378906 32.18798828 C19.02024891 43.37051603 21.59170898 54.56765613 24.14453125 65.76953125 C24.66868953 68.06307232 25.19285938 70.35661075 25.71704102 72.65014648 C26.71268328 77.00826033 27.69761665 81.36859216 28.67553711 85.73071289 C31.05494316 96.25096233 33.6459059 106.67550915 36.640625 117.0390625 C36.92286926 118.02176117 37.20511353 119.00445984 37.49591064 120.01693726 C40.92173918 131.60178888 45.61285309 145.25452141 56.68521118 151.51930237 C65.02766626 155.44384816 73.29481942 157.85874622 82.2734375 159.83984375 C83.72787385 160.17198199 85.18202004 160.50539303 86.63589478 160.83998108 C90.44495969 161.71301212 94.25766982 162.56889806 98.07147217 163.42095947 C101.84429325 164.26697269 105.61338354 165.12925776 109.3828125 165.99023438 C116.05204058 167.51137819 122.72506994 169.01499442 129.39977646 170.51189232 C133.8509628 171.51184279 138.29877101 172.52546335 142.74407768 173.55123425 C145.61815976 174.21441351 148.4931036 174.87381317 151.36809158 175.53305244 C152.71717777 175.84352722 154.06584083 176.15584713 155.41404343 176.47013664 C157.26919823 176.90238683 159.12602129 177.32745818 160.98291016 177.75219727 C162.55161362 178.1151162 162.55161362 178.1151162 164.15200806 178.48536682 C166.97015651 179.08520504 166.97015651 179.08520504 169.75888062 178.98033142 C172 179 172 179 173.875 180.5625 C175.5692095 184.23328725 175.29257513 186.19030489 174 190 C167.33975304 194.24760648 159.80298249 195.80207572 152.21133423 197.66125488 C148.8596868 198.48384864 145.51452561 199.33157178 142.16862488 200.17718506 C139.29131656 200.90403381 136.4132475 201.62782059 133.53515625 202.3515625 C122.67442407 205.08772841 111.82110423 207.85203894 100.97835827 210.65862656 C96.90561603 211.71237662 92.8300143 212.75389454 88.75177956 213.78617096 C85.54644621 214.60143736 82.34591605 215.43499317 79.14453125 216.265625 C77.99581543 216.5529248 76.84709961 216.84022461 75.66357422 217.13623047 C62.25841689 220.65876795 51.54882682 225.54986026 44.35546875 237.80078125 C41.40693787 243.67544911 39.39140604 249.65714228 37.73828125 256.0078125 C37.52785187 256.81355713 37.31742249 257.61930176 37.10061646 258.44946289 C33.94607609 270.8263386 31.43409654 283.35618873 28.82355118 295.8564415 C28.0634273 299.48895898 27.29664369 303.12006842 26.5300293 306.7512207 C25.28542237 312.6484089 24.04241002 318.54592891 22.80126953 324.44384766 C20.38437533 335.92655263 17.96597576 347.40888421 15.51568604 358.88452148 C15.05031224 361.07045746 14.58766474 363.25697579 14.12786865 365.4440918 C13.49420166 368.45766767 12.85170498 371.46923131 12.20703125 374.48046875 C12.02635605 375.35035934 11.84568085 376.22024994 11.65953064 377.11650085 C10.59189988 382.04830314 9.33131326 386.50639461 7 391 C4.0625 392.1875 4.0625 392.1875 1 392 C-2.72625354 389.07185307 -3.78446783 386.40094763 -4.90625 381.8671875 C-5.06661743 381.22482147 -5.22698486 380.58245544 -5.39221191 379.92062378 C-7.74803912 370.25648535 -9.72414447 360.49777647 -11.74536133 350.75964355 C-12.51554148 347.05014597 -13.2912823 343.34184761 -14.06835938 339.63378906 C-16.41674431 328.41990359 -18.75141828 317.20319075 -21.07817841 305.98480034 C-22.28901833 300.14827159 -23.5057657 294.31298196 -24.72387695 288.47796631 C-25.48411701 284.82629105 -26.23726911 281.17320058 -26.99023438 277.52001953 C-30.05919448 262.67216683 -30.05919448 262.67216683 -34.31835938 248.13378906 C-35 246 -35 246 -35 244 C-35.66 243.67 -36.32 243.34 -37 243 C-37.2475 242.154375 -37.495 241.30875 -37.75 240.4375 C-41.01474619 231.45944798 -48.04113075 225.18356514 -56.50839233 221.04064941 C-61.61114212 218.90942561 -66.98463179 217.66312248 -72.33203125 216.296875 C-73.65241011 215.95291595 -74.9726221 215.60831581 -76.29267883 215.26312256 C-80.52471943 214.16067495 -84.76174135 213.07826139 -89 212 C-89.70523552 211.82036713 -90.41047104 211.64073425 -91.13707733 211.45565796 C-103.48079589 208.31347436 -115.83419113 205.20925108 -128.19262695 202.12548828 C-131.87245177 201.20700487 -135.55080351 200.28280873 -139.22831154 199.35509491 C-140.60026671 199.01014687 -141.97274625 198.66727609 -143.3458004 198.32672882 C-149.71136577 196.74744802 -156.05161798 195.09622707 -162.29223633 193.07324219 C-163.15754471 192.79454285 -164.02285309 192.51584351 -164.91438293 192.22869873 C-167 191 -167 191 -168.41923523 188.62042236 C-169 186 -169 186 -168.39093018 183.81559753 C-163.36797625 177.25907663 -150.61459029 176.3771103 -143.078125 174.79296875 C-141.72920952 174.50241039 -140.3804789 174.21099273 -139.03192139 173.91877747 C-135.48755173 173.15278449 -131.94112842 172.39679739 -128.39404297 171.64349365 C-116.58814152 169.13262228 -104.79062256 166.581614 -93 164 C-92.30893158 163.84894051 -91.61786316 163.69788101 -90.90585327 163.54224396 C-86.80106872 162.64322629 -82.6997385 161.73037885 -78.60207367 160.79943275 C-76.74633847 160.38010716 -74.88825224 159.97122771 -73.03009033 159.56278992 C-60.39122741 156.65923576 -48.77337271 153.25569628 -41.59375 141.80859375 C-25.72793696 113.84898694 -21.54306126 78.64607425 -14.3671875 47.609375 C-14.08458572 46.39264099 -13.80198395 45.17590698 -13.51081848 43.92230225 C-12.094722 37.81073601 -10.70866625 31.69478528 -9.37597656 25.56445312 C-9.11382355 24.3777301 -8.85167053 23.19100708 -8.58157349 21.96832275 C-8.08888874 19.73375201 -7.60602875 17.49698281 -7.13497925 15.25775146 C-5.80063952 9.25476434 -4.45298163 4.45298163 0 0 Z " fill="#B67EFE" transform="translate(502,141)"/>
<path d="M0 0 C2.12309169 2.65986205 3.61738614 5.12330369 4.875 8.28125 C5.21523193 9.11430664 5.55546387 9.94736328 5.90600586 10.80566406 C6.26702393 11.69479492 6.62804199 12.58392578 7 13.5 C10.25621967 21.31492721 13.85317465 28.83329795 17.9375 36.25 C18.40994141 37.11302734 18.88238281 37.97605469 19.36914062 38.86523438 C21.4738408 43.13276528 21.4738408 43.13276528 25 46 C25.79885533 47.46063871 26.53213273 48.95747171 27.23046875 50.46875 C29.82899473 55.81994375 32.91123474 60.62958476 36.3125 65.5 C36.88137939 66.32226074 37.45025879 67.14452148 38.03637695 67.99169922 C44.34622696 78.26776128 44.34622696 78.26776128 53 86 C54 87.66666667 55 89.33333333 56 91 C58.45000963 94.094749 60.95848901 96.95848901 63.75 99.75 C66 102 66 102 67 104 C67.763125 104.4125 68.52625 104.825 69.3125 105.25 C72.00323333 107.00210542 73.00719613 108.45528479 74.65234375 111.1328125 C80.35406347 119.03258649 88.56437736 125.51690552 96.05078125 131.69140625 C96.69402344 132.22636719 97.33726562 132.76132812 98 133.3125 C98.5775 133.78300781 99.155 134.25351562 99.75 134.73828125 C101 136 101 136 101 138 C97.49172085 136.47920927 95.04728354 134.4004327 92.25 131.8125 C89.24589467 129.05362776 86.23356028 126.32782526 83.125 123.6875 C75.56260405 117.09149542 68.37467872 109.8709981 61.8828125 102.21875 C60.39949228 100.47077099 58.8882959 98.74644641 57.3671875 97.03125 C49.23543352 87.81697829 42.02946351 78.07227277 35 68 C34.56478027 67.38608398 34.12956055 66.77216797 33.68115234 66.13964844 C0 18.53481718 0 18.53481718 0 0 Z " fill="#9E67F2" transform="translate(211,621)"/>
<path d="M0 0 C1 3 1 3 -0.1953125 5.6875 C-14.06565572 29.49731995 -30.79708923 51.12239358 -49.515625 71.29296875 C-51.56894162 73.53030903 -53.5452051 75.80251748 -55.5 78.125 C-59.88359299 83.20525202 -64.97779943 87.56811234 -70 92 C-70.66 91.67 -71.32 91.34 -72 91 C-71.38068604 90.39115967 -70.76137207 89.78231934 -70.12329102 89.1550293 C-67.77624661 86.84254851 -65.43414088 84.52526982 -63.0949707 82.20483398 C-62.09130492 81.21108174 -61.08583546 80.2191471 -60.07836914 79.22924805 C-53.97353428 73.22803994 -48.2606777 67.12753895 -42.93457031 60.40429688 C-41.0973299 58.12096225 -39.1800919 55.96040852 -37.1875 53.8125 C-22.78348448 37.70386726 -10.4058904 18.89490625 0 0 Z " fill="#8E54ED" transform="translate(787,657)"/>
<path d="M0 0 C0 0.66 0 1.32 0 2 C-1.75485828 3.38862699 -3.58429625 4.6831283 -5.4375 5.9375 C-6.30725464 6.52640015 -6.30725464 6.52640015 -7.19458008 7.12719727 C-9.12397154 8.42693626 -11.06146385 9.71394675 -13 11 C-13.65806641 11.44085937 -14.31613281 11.88171875 -14.99414062 12.3359375 C-29.83885003 22.26109586 -45.19361575 30.75395586 -61.25 38.5625 C-62.32185547 39.0877124 -63.39371094 39.6129248 -64.49804688 40.15405273 C-66.02268555 40.88410522 -66.02268555 40.88410522 -67.578125 41.62890625 C-68.47950195 42.06275635 -69.38087891 42.49660645 -70.30957031 42.94360352 C-73.20533226 44.08062365 -75.92296423 44.59321023 -79 45 C-77.40538112 41.81076224 -74.09562683 41.18017797 -70.9375 39.875 C-62.44076579 36.25326942 -54.18338283 32.28077497 -46 28 C-45.29117676 27.63036133 -44.58235352 27.26072266 -43.85205078 26.87988281 C-30.89884822 20.06423023 -18.75124448 12.18056827 -6.96630859 3.50244141 C-2.19584798 0 -2.19584798 0 0 0 Z " fill="#8E54EE" transform="translate(695,766)"/>
<path d="M0 0 C3.36048572 1.42857653 5.27725861 3.16054598 7.625 5.9375 C8.51058594 6.97197266 8.51058594 6.97197266 9.4140625 8.02734375 C11 10 11 10 13 13 C13.78375 13.433125 14.5675 13.86625 15.375 14.3125 C18.03900586 16.0250752 19.02806409 17.48924803 20.65234375 20.1328125 C26.35406347 28.03258649 34.56437736 34.51690552 42.05078125 40.69140625 C42.69402344 41.22636719 43.33726562 41.76132812 44 42.3125 C44.5775 42.78300781 45.155 43.25351562 45.75 43.73828125 C47 45 47 45 47 47 C43.49172085 45.47920927 41.04728354 43.4004327 38.25 40.8125 C35.24589467 38.05362776 32.23356028 35.32782526 29.125 32.6875 C20.80648013 25.43199585 13.1202862 17.42476611 6 9 C5.42121094 8.34902344 4.84242188 7.69804688 4.24609375 7.02734375 C3.69050781 6.39957031 3.13492187 5.77179687 2.5625 5.125 C1.82193359 4.29355469 1.82193359 4.29355469 1.06640625 3.4453125 C0 2 0 2 0 0 Z " fill="#975FF1" transform="translate(265,712)"/>
<path d="M0 0 C0.33 0 0.66 0 1 0 C1.33203101 6.00085313 0.15464489 10.95674896 -1.5625 16.6875 C-1.83280029 17.60523193 -2.10310059 18.52296387 -2.3815918 19.46850586 C-13.55435579 56.83153368 -13.55435579 56.83153368 -23 71 C-23.66 70.67 -24.32 70.34 -25 70 C-24.47212891 69.01386719 -24.47212891 69.01386719 -23.93359375 68.0078125 C-20.67604831 61.73087116 -17.86560153 55.40349525 -15.3125 48.8125 C-15.02753662 48.07725098 -14.74257324 47.34200195 -14.44897461 46.58447266 C-11.04408207 37.66192342 -8.21531295 28.5714269 -5.4375 19.4375 C-5.13392578 18.44814453 -4.83035156 17.45878906 -4.51757812 16.43945312 C-2.85746069 10.98891507 -1.32450864 5.54184957 0 0 Z " fill="#9259EE" transform="translate(819,573)"/>
<path d="M0 0 C20.23043478 1.48695652 20.23043478 1.48695652 25.6875 5.125 C27 7 27 7 27.1875 10.4375 C26 14 26 14 22.65625 16.01953125 C17.40311915 18.44798162 11.90972435 19.84621757 6.3125 21.25 C5.29349609 21.518125 4.27449219 21.78625 3.22460938 22.0625 C-1.30639976 23.22414525 -5.29736404 24.15853363 -10 24 C-7.2876638 21.2876638 -4.31154864 20.95088149 -0.6875 20.125 C12.22653981 17.44830406 12.22653981 17.44830406 24 12 C23.505 9.525 23.505 9.525 23 7 C15.37428218 4.76543688 7.78593716 2.61088355 0 1 C0 0.67 0 0.34 0 0 Z " fill="#A873F2" transform="translate(650,317)"/>
<path d="M0 0 C3.41692899 0.57784648 6.23643657 1.42632119 9.3359375 2.96875 C10.14474365 3.3699707 10.9535498 3.77119141 11.78686523 4.18457031 C12.64094971 4.61866211 13.49503418 5.05275391 14.375 5.5 C15.26840088 5.95213867 16.16180176 6.40427734 17.08227539 6.87011719 C29.02232548 12.98181472 40.18849192 20.04821242 51.375 27.4375 C52.31013428 28.05334961 53.24526855 28.66919922 54.20874023 29.30371094 C55.07571533 29.88282227 55.94269043 30.46193359 56.8359375 31.05859375 C57.61501465 31.57736084 58.3940918 32.09612793 59.19677734 32.63061523 C61 34 61 34 62 36 C58.55862441 34.72181799 55.61184668 33.23996848 52.55859375 31.20703125 C51.3209729 30.39020874 51.3209729 30.39020874 50.05834961 29.55688477 C49.19346924 28.98123779 48.32858887 28.40559082 47.4375 27.8125 C40.07469102 22.97010098 32.70184437 18.28891481 25 14 C23.67548828 13.25556641 23.67548828 13.25556641 22.32421875 12.49609375 C14.99712149 8.4349096 7.51077106 4.7060447 0 1 C0 0.67 0 0.34 0 0 Z " fill="#A873F8" transform="translate(386,556)"/>
<path d="M0 0 C4.03805866 1.36266644 6.54368118 3.1409151 9.625 6.0625 C13.17225984 9.35676062 16.77865081 12.48035037 20.5625 15.5 C24.95164455 19.048407 28.93231817 22.82263586 32.8671875 26.86328125 C35.55047 29.55147819 38.38874727 32.01965834 41.26953125 34.4921875 C43.27468378 36.23934072 45.15843313 38.08170118 47 40 C46.67 40.99 46.34 41.98 46 43 C44.32737283 41.38113585 42.66204463 39.7547271 41 38.125 C40.071875 37.22007812 39.14375 36.31515625 38.1875 35.3828125 C36 33 36 33 36 31 C35.40525879 30.72744385 34.81051758 30.4548877 34.19775391 30.17407227 C32.05990011 29.03199951 30.58388243 27.87707268 28.8359375 26.21484375 C27.98902344 25.41916992 27.98902344 25.41916992 27.125 24.60742188 C26.5475 24.05634766 25.97 23.50527344 25.375 22.9375 C21.50673691 19.03429271 21.50673691 19.03429271 17 16 C17 15.34 17 14.68 17 14 C16.47921875 13.773125 15.9584375 13.54625 15.421875 13.3125 C12.12315465 11.52480639 9.21542579 9.28109676 6.25 7 C5.64800781 6.54882812 5.04601562 6.09765625 4.42578125 5.6328125 C2.91093644 4.47177498 1.45030179 3.24072061 0 2 C0 1.34 0 0.68 0 0 Z " fill="#A971F9" transform="translate(460,601)"/>
<path d="M0 0 C5.84159702 1.61412549 10.76399124 4.53876824 16 7.5 C28.59965234 14.50962824 41.59015932 20.6927687 55 26 C51.51183061 27.231382 49.73774985 26.79579744 46.38671875 25.33203125 C45.02522705 24.74264771 45.02522705 24.74264771 43.63623047 24.14135742 C42.66314941 23.70283447 41.69006836 23.26431152 40.6875 22.8125 C39.68090332 22.36559814 38.67430664 21.91869629 37.63720703 21.45825195 C30.11517165 18.0681456 22.71300454 14.4583452 15.375 10.6875 C14.41037842 10.19677002 13.44575684 9.70604004 12.4519043 9.20043945 C7.54019912 6.62230829 3.63676363 4.21220091 0 0 Z " fill="#9258F0" transform="translate(347,784)"/>
<path d="M0 0 C0.66 0.66 1.32 1.32 2 2 C-12.85 2 -27.7 2 -43 2 C-33.55553621 -4.29630919 -10.85887572 -2.02291885 0 0 Z " fill="#975EF1" transform="translate(788,475)"/>
<path d="M0 0 C-1 2 -1 2 -2.96875 2.67578125 C-3.8040625 2.88589844 -4.639375 3.09601562 -5.5 3.3125 C-13.68496859 5.65440804 -20.11712794 8.89764063 -25 16 C-27.39854933 20.63375658 -27.431482 25.20443124 -27.625 30.3125 C-27.66367188 31.14845703 -27.70234375 31.98441406 -27.7421875 32.84570312 C-27.83595159 34.89679259 -27.91904245 36.94836515 -28 39 C-31.25922228 34.11116658 -30.44045897 28.71919025 -30 23 C-29.32778465 19.95785752 -28.3998136 17.84962055 -27 15 C-26.525625 13.989375 -26.05125 12.97875 -25.5625 11.9375 C-19.56198666 5.05886275 -9.29937996 -0.54702235 0 0 Z " fill="#A26FF0" transform="translate(227,536)"/>
<path d="M0 0 C4.75 1.875 4.75 1.875 7 3 C7 3.66 7 4.32 7 5 C8.05960937 5.36351562 8.05960937 5.36351562 9.140625 5.734375 C12.42926886 7.19000425 14.9123321 9.04292496 17.75 11.25 C22.70919086 15.04918211 27.74867268 18.61846347 33 22 C32.01 22.33 31.02 22.66 30 23 C22.67927613 19.17574126 16.00771611 13.60120536 9.375 8.6875 C8.67608643 8.17227783 7.97717285 7.65705566 7.25708008 7.1262207 C6.60247803 6.63468506 5.94787598 6.14314941 5.2734375 5.63671875 C4.68997559 5.20061279 4.10651367 4.76450684 3.50537109 4.31518555 C2 3 2 3 0 0 Z " fill="#9056F0" transform="translate(313,760)"/>
<path d="M0 0 C12.76724955 0.73956628 12.76724955 0.73956628 18.74609375 2.45703125 C24.07225434 3.7401098 29.57352532 4.2835834 35 5 C35 5.33 35 5.66 35 6 C26.4215183 6.51130023 18.58814673 5.79669557 10.1875 4.125 C9.29772461 3.95129883 8.40794922 3.77759766 7.49121094 3.59863281 C2.74190867 2.59926583 2.74190867 2.59926583 1 2 C0.67 1.34 0.34 0.68 0 0 Z " fill="#9257F0" transform="translate(443,823)"/>
<path d="M0 0 C-7.82534281 4.29626664 -16.91012312 8.4722014 -26 8 C-22.38774989 4.77443985 -18.4855085 3.70133191 -13.9375 2.375 C-12.5091088 1.94533174 -11.08072316 1.51564496 -9.65234375 1.0859375 C-8.44707031 0.72757813 -7.24179687 0.36921875 -6 0 C-3 -1 -3 -1 0 0 Z " fill="#9156F0" transform="translate(615,812)"/>
<path d="M0 0 C0.66 0.33 1.32 0.66 2 1 C1.11957031 1.80824219 0.23914063 2.61648438 -0.66796875 3.44921875 C-1.84119774 4.52858942 -3.01437191 5.60801967 -4.1875 6.6875 C-5.0547168 7.48317383 -5.0547168 7.48317383 -5.93945312 8.29492188 C-8.62842269 10.77120458 -11.26822069 13.25780367 -13.80078125 15.89453125 C-16 18 -16 18 -18 18 C-17.43170174 14.66113553 -16.53260272 13.21335813 -13.9453125 11.0546875 C-13.33042969 10.53519531 -12.71554687 10.01570312 -12.08203125 9.48046875 C-11.43621094 8.95066406 -10.79039062 8.42085937 -10.125 7.875 C-9.48691406 7.33746094 -8.84882812 6.79992187 -8.19140625 6.24609375 C-5.5206621 4.01025157 -2.90313179 1.93542119 0 0 Z " fill="#945AF4" transform="translate(606,543)"/>
<path d="M0 0 C6.33438683 1.10040573 11.04267137 6.52910857 14.9375 11.375 C17.59754272 15.29365354 17.8842174 19.35817027 18 24 C16.93361658 21.91046492 15.92308079 19.82201253 14.9921875 17.66796875 C12.05495813 11.14649794 8.55968088 7.3849366 3 3 C1.98532143 2.01489726 0.98002126 1.01958733 0 0 Z " fill="#8D56EA" transform="translate(805,481)"/>
<path d="M0 0 C4.48228695 1.41376793 6.91071003 3.61860627 10.125 7 C12.70040092 9.69282042 14.89463635 11.92975757 18 14 C18 14.66 18 15.32 18 16 C14.37830859 14.44904419 11.87481981 12.23134948 9 9.5625 C5.47118637 6.29566918 5.47118637 6.29566918 1.6875 3.33984375 C0.8521875 2.67662109 0.8521875 2.67662109 0 2 C0 1.34 0 0.68 0 0 Z " fill="#9056EF" transform="translate(294,743)"/>
<path d="M0 0 C7.20196248 0.62625761 14.87355824 2.49855824 20.125 7.75 C20.74375 8.4925 21.3625 9.235 22 10 C18.77084326 9.33343095 16.16301974 8.15572693 13.25 6.625 C8.91278249 4.40491092 4.59369194 2.61629902 0 1 C0 0.67 0 0.34 0 0 Z " fill="#AB74F7" transform="translate(435,357)"/>
<path d="M0 0 C1.94268841 2.91403262 3.46395304 5.85808576 5 9 C6.65 8.67 8.3 8.34 10 8 C10.66 6.02 11.32 4.04 12 2 C12.33 2 12.66 2 13 2 C12.40377804 8.31995277 12.40377804 8.31995277 10.8125 11 C9 12 9 12 6 12 C3 11 3 11 1.125 8.8125 C-0.1327103 5.66822424 -0.23415726 3.35625403 0 0 Z " fill="#A874F6" transform="translate(498,521)"/>
<path d="M0 0 C8.11138929 0.36620268 15.33035667 2.41540233 23 5 C23 5.33 23 5.66 23 6 C15.51861473 5.51999962 8.11362598 4.44933744 1 2 C0.67 1.34 0.34 0.68 0 0 Z " fill="#AD79F7" transform="translate(388,345)"/>
<path d="M0 0 C0 0.66 0 1.32 0 2 C-0.66 2 -1.32 2 -2 2 C-2.33 2.99 -2.66 3.98 -3 5 C-5.109375 6.97265625 -5.109375 6.97265625 -7.75 9.0625 C-8.61109375 9.75472656 -9.4721875 10.44695313 -10.359375 11.16015625 C-12.86282854 12.90442639 -15.1291792 14.00347408 -18 15 C-14.51318409 11.47507681 -10.96079004 8.04711224 -7.3125 4.6875 C-5.88357422 3.36298828 -5.88357422 3.36298828 -4.42578125 2.01171875 C-2 0 -2 0 0 0 Z " fill="#8D52EE" transform="translate(714,750)"/>
<path d="M0 0 C0.33 0 0.66 0 1 0 C1.2494783 7.29031024 0.72330907 13.90673679 -1 21 C-1.66 21 -2.32 21 -3 21 C-2.68981396 18.4372008 -2.37693109 15.8747789 -2.0625 13.3125 C-1.97548828 12.59126953 -1.88847656 11.87003906 -1.79882812 11.12695312 C-1.33686195 7.37989416 -0.80832321 3.69207089 0 0 Z " fill="#915AEE" transform="translate(823,550)"/>
<path d="M0 0 C2.89202126 2.55023693 4.51112503 5.4600552 6.375 8.8125 C8.93494577 13.29648144 11.51666336 17.19999639 15 21 C7.65927589 17.79648224 3.60575068 11.0322213 0.62890625 3.8828125 C0 2 0 2 0 0 Z " fill="#A974F5" transform="translate(541,271)"/>
<path d="M0 0 C0.99 0.33 1.98 0.66 3 1 C0.91888693 2.46159097 -1.16474461 3.91933992 -3.25 5.375 C-3.83652344 5.7875 -4.42304687 6.2 -5.02734375 6.625 C-7.92995082 8.64704088 -10.76947715 10.54466545 -14 12 C-12.4696315 7.78911027 -9.71720859 6.11068254 -6.0625 3.6875 C-5.00160156 2.96949219 -3.94070313 2.25148438 -2.84765625 1.51171875 C-1.43806641 0.76341797 -1.43806641 0.76341797 0 0 Z " fill="#9359F4" transform="translate(638,519)"/>
<path d="M0 0 C0.66 0.33 1.32 0.66 2 1 C-1.96 4.96 -5.92 8.92 -10 13 C-10.33 12.01 -10.66 11.02 -11 10 C-5.555 5.05 -5.555 5.05 0 0 Z " fill="#955CF2" transform="translate(585,561)"/>
<path d="M0 0 C8.57142857 0.71428571 8.57142857 0.71428571 12 4 C9.03 4 6.06 4 3 4 C3 3.34 3 2.68 3 2 C2.01 2 1.02 2 0 2 C0 1.34 0 0.68 0 0 Z " fill="#9359F1" transform="translate(414,815)"/>
<path d="M0 0 C0.66 0.33 1.32 0.66 2 1 C-1.3 4.63 -4.6 8.26 -8 12 C-8.33 11.01 -8.66 10.02 -9 9 C-6.03 6.03 -3.06 3.06 0 0 Z " fill="#9056F2" transform="translate(559,587)"/>
<path d="M0 0 C0.66 0.33 1.32 0.66 2 1 C-1.3 3.97 -4.6 6.94 -8 10 C-8.66 9.67 -9.32 9.34 -10 9 C-7.12505529 5.01930733 -4.17882671 2.56428003 0 0 Z " fill="#9359F3" transform="translate(620,532)"/>
<path d="M0 0 C0.99 0.33 1.98 0.66 3 1 C0.03 4.3 -2.94 7.6 -6 11 C-6.66 10.67 -7.32 10.34 -8 10 C-5.36 6.7 -2.72 3.4 0 0 Z " fill="#955CF3" transform="translate(526,623)"/>
<path d="M0 0 C2.1464753 0.11344376 4.29220592 0.24106345 6.4375 0.375 C8.22994141 0.47941406 8.22994141 0.47941406 10.05859375 0.5859375 C11.02925781 0.72257813 11.99992187 0.85921875 13 1 C13.33 1.66 13.66 2.32 14 3 C8.78020872 3.1799928 4.92737019 2.97094808 0 1 C0 0.67 0 0.34 0 0 Z " fill="#A770F8" transform="translate(314,534)"/>
<path d="M0 0 C4.59306496 1.4859916 7.43569245 3.85014682 11 7 C10.67 7.66 10.34 8.32 10 9 C8.3278148 7.88321917 6.66237197 6.75633648 5 5.625 C3.6078125 4.68527344 3.6078125 4.68527344 2.1875 3.7265625 C1.465625 3.15679688 0.74375 2.58703125 0 2 C0 1.34 0 0.68 0 0 Z " fill="#A870FA" transform="translate(448,592)"/>
<path d="M0 0 C1.43791516 0.14168137 2.8753237 0.28851043 4.3125 0.4375 C5.11300781 0.51871094 5.91351562 0.59992188 6.73828125 0.68359375 C9 1 9 1 12 2 C12 2.66 12 3.32 12 4 C7.80530429 3.40075776 3.99000166 2.42500059 0 1 C0 0.67 0 0.34 0 0 Z " fill="#9159EC" transform="translate(792,477)"/>
<path d="M0 0 C-0.33 0.66 -0.66 1.32 -1 2 C-4.47325181 3.1577506 -7.36067448 3.06866652 -11 3 C-7.72430636 -0.27569364 -4.48909309 -0.12469703 0 0 Z " fill="#9157F0" transform="translate(588,820)"/>
<path d="M0 0 C1 3 1 3 -0.4375 6.1875 C-1.2109375 7.5796875 -1.2109375 7.5796875 -2 9 C-2.66 9 -3.32 9 -4 9 C-3.35455571 5.51460083 -1.89865603 2.97180943 0 0 Z " fill="#8F54EE" transform="translate(793,646)"/>
<path d="M0 0 C0.99 0.33 1.98 0.66 3 1 C2.34 1 1.68 1 1 1 C0.67 1.66 0.34 2.32 0 3 C0 2.01 0 1.02 0 0 Z " fill="#B07EFB" transform="translate(620,528)"/>
<path d="M0 0 C2 1 2 1 2 1 Z " fill="#A270F0" transform="translate(467,830)"/>
<path d="M0 0 C2 1 2 1 2 1 Z " fill="#B48BED" transform="translate(216,536)"/>
<path d="" fill="#B98EF5" transform="translate(0,0)"/>
<path d="M0 0 C2 1 2 1 2 1 Z " fill="#AE7EF4" transform="translate(710,481)"/>
<path d="M0 0 C2 1 2 1 2 1 Z " fill="#B88BFA" transform="translate(432,359)"/>
<path d="M0 0 C2 1 2 1 2 1 Z " fill="#BB88FB" transform="translate(394,349)"/>
<path d="M0 0 C2 1 2 1 2 1 Z " fill="#B384F1" transform="translate(654,315)"/>
<path d="M0 0 C2 1 2 1 2 1 Z " fill="#BC8CF8" transform="translate(432,298)"/>
<path d="" fill="#B68AF2" transform="translate(0,0)"/>
<path d="" fill="#4D4D50" transform="translate(0,0)"/>
<path d="" fill="#A473EF" transform="translate(0,0)"/>
<path d="" fill="#A075EB" transform="translate(0,0)"/>
<path d="" fill="#A16FED" transform="translate(0,0)"/>
<path d="" fill="#A470ED" transform="translate(0,0)"/>
<path d="" fill="#A571EE" transform="translate(0,0)"/>
<path d="" fill="#A471F0" transform="translate(0,0)"/>
<path d="" fill="#A472F2" transform="translate(0,0)"/>
<path d="" fill="#A473F0" transform="translate(0,0)"/>
<path d="" fill="#A475EE" transform="translate(0,0)"/>
<path d="" fill="#A774F0" transform="translate(0,0)"/>
<path d="" fill="#AA7CEE" transform="translate(0,0)"/>
<path d="" fill="#AD7FF2" transform="translate(0,0)"/>
<path d="" fill="#AF81F3" transform="translate(0,0)"/>
<path d="" fill="#A779F5" transform="translate(0,0)"/>
<path d="" fill="#B181F6" transform="translate(0,0)"/>
<path d="" fill="#B386F5" transform="translate(0,0)"/>
<path d="" fill="#A674F0" transform="translate(0,0)"/>
<path d="" fill="#B385F2" transform="translate(0,0)"/>
<path d="" fill="#B385F4" transform="translate(0,0)"/>
<path d="" fill="#B584F4" transform="translate(0,0)"/>
<path d="" fill="#BD8EF8" transform="translate(0,0)"/>
<path d="" fill="#B385F5" transform="translate(0,0)"/>
<path d="" fill="#B585F3" transform="translate(0,0)"/>
<path d="" fill="#B888FB" transform="translate(0,0)"/>
<path d="" fill="#B382FD" transform="translate(0,0)"/>
<path d="" fill="#B488F3" transform="translate(0,0)"/>
<path d="" fill="#B280FB" transform="translate(0,0)"/>
<path d="" fill="#B287EF" transform="translate(0,0)"/>
<path d="" fill="#B281FB" transform="translate(0,0)"/>
<path d="" fill="#B987FB" transform="translate(0,0)"/>
<path d="" fill="#B885FA" transform="translate(0,0)"/>
<path d="" fill="#AE7FF9" transform="translate(0,0)"/>
<path d="" fill="#AF7EF9" transform="translate(0,0)"/>
<path d="" fill="#BA89F7" transform="translate(0,0)"/>
<path d="" fill="#BD8DFE" transform="translate(0,0)"/>
<path d="" fill="#A97AED" transform="translate(0,0)"/>
<path d="" fill="#B280FC" transform="translate(0,0)"/>
<path d="" fill="#B787F4" transform="translate(0,0)"/>
<path d="" fill="#B787F4" transform="translate(0,0)"/>
<path d="" fill="#B88BF3" transform="translate(0,0)"/>
<path d="" fill="#A877EE" transform="translate(0,0)"/>
<path d="" fill="#BB8BF9" transform="translate(0,0)"/>
<path d="" fill="#B88AFC" transform="translate(0,0)"/>
<path d="" fill="#B98BF9" transform="translate(0,0)"/>
<path d="" fill="#AA7DF4" transform="translate(0,0)"/>
<path d="" fill="#BC8DFB" transform="translate(0,0)"/>
<path d="" fill="#A67EE9" transform="translate(0,0)"/>
<path d="" fill="#A77AEC" transform="translate(0,0)"/>
<path d="" fill="#AB7AF3" transform="translate(0,0)"/>
<path d="" fill="#BC89FB" transform="translate(0,0)"/>
<path d="" fill="#BE8BFC" transform="translate(0,0)"/>
<path d="" fill="#B98CF8" transform="translate(0,0)"/>
<path d="" fill="#BE8EFD" transform="translate(0,0)"/>
<path d="" fill="#BC8BF8" transform="translate(0,0)"/>
<path d="" fill="#BD8FFA" transform="translate(0,0)"/>
<path d="" fill="#BC8CFA" transform="translate(0,0)"/>
<path d="" fill="#BE8DF9" transform="translate(0,0)"/>
<path d="" fill="#BC89F9" transform="translate(0,0)"/>
<path d="" fill="#BC8EFC" transform="translate(0,0)"/>
<path d="" fill="#BB88FD" transform="translate(0,0)"/>
<path d="" fill="#BC89FA" transform="translate(0,0)"/>
<path d="" fill="#BF8BF9" transform="translate(0,0)"/>
<path d="" fill="#BB8AFB" transform="translate(0,0)"/>
<path d="" fill="#BC89F8" transform="translate(0,0)"/>
<path d="" fill="#BB8BF7" transform="translate(0,0)"/>
<path d="" fill="#B88AF4" transform="translate(0,0)"/>
<path d="" fill="#B987F6" transform="translate(0,0)"/>
<path d="" fill="#B888F3" transform="translate(0,0)"/>
<path d="" fill="#B389E6" transform="translate(0,0)"/>
<path d="" fill="#B68AF1" transform="translate(0,0)"/>
<path d="" fill="#B888F4" transform="translate(0,0)"/>
<path d="" fill="#BA8BF6" transform="translate(0,0)"/>
<path d="" fill="#B989F5" transform="translate(0,0)"/>
<path d="" fill="#BC8BF5" transform="translate(0,0)"/>
<path d="" fill="#B887F6" transform="translate(0,0)"/>
<path d="" fill="#BA8DF4" transform="translate(0,0)"/>
<path d="" fill="#BE8DFC" transform="translate(0,0)"/>
<path d="" fill="#BA8AF6" transform="translate(0,0)"/>
<path d="" fill="#BA89F7" transform="translate(0,0)"/>
<path d="" fill="#BA86F6" transform="translate(0,0)"/>
<path d="" fill="#B985F5" transform="translate(0,0)"/>
<path d="" fill="#BB89F6" transform="translate(0,0)"/>
<path d="" fill="#BA8BF6" transform="translate(0,0)"/>
<path d="" fill="#B78AF5" transform="translate(0,0)"/>
<path d="" fill="#B286EE" transform="translate(0,0)"/>
<path d="" fill="#B488EE" transform="translate(0,0)"/>
<path d="" fill="#B183EA" transform="translate(0,0)"/>
<path d="" fill="#B48BEC" transform="translate(0,0)"/>
</svg>
