<svg width="198" height="198" viewBox="0 0 198 198" fill="none" xmlns="http://www.w3.org/2000/svg">
<path fill-rule="evenodd" clip-rule="evenodd" d="M32 0C14.3269 0 0 14.3269 0 32V166C0 168.516 3.08225 168.943 4.22665 166.701C39.7031 97.2263 111.385 49.3174 194.397 47.8504C196.383 47.8153 198 46.2074 198 44.2212V32C198 14.3269 183.673 0 166 0H32ZM198 87.4223C198 85.4316 196.376 83.8152 194.386 83.8575C120.473 85.4274 57.4141 131.109 30.4794 195.634C30.0113 196.756 30.7848 198 32 198H166C183.673 198 198 183.673 198 166V87.4223Z" fill="#7269F8"/>
</svg>
