<svg width="111" height="111" viewBox="0 0 111 111" fill="none" xmlns="http://www.w3.org/2000/svg">
<mask id="mask0_21953_7" style="mask-type:luminance" maskUnits="userSpaceOnUse" x="0" y="0" width="111" height="111">
<path fill-rule="evenodd" clip-rule="evenodd" d="M17.8612 0C7.99672 0 0 7.99672 0 17.8612V92.6548C0 95.0449 0.469424 97.3249 1.3211 99.4086C1.91089 100.851 3.83441 100.747 4.54952 99.3622C24.1614 61.3782 63.2073 35.0597 108.537 33.5575C109.633 33.5212 110.516 32.6289 110.516 31.5325V17.8612C110.516 7.99672 102.519 0 92.6548 0H17.8612ZM110.516 47.8374C110.516 46.7127 109.589 45.8052 108.465 45.8474C66.8359 47.41 31.1644 72.2562 14.0949 107.741C13.5594 108.854 14.1768 110.179 15.4006 110.348C16.2049 110.458 17.0264 110.516 17.8612 110.516H92.6548C102.519 110.516 110.516 102.519 110.516 92.6548V47.8374Z" fill="white"/>
</mask>
<g mask="url(#mask0_21953_7)">
<path d="M12.0563 17.8613C12.0563 14.6553 14.6552 12.0564 17.8612 12.0564V-12.0562C1.33821 -12.0562 -12.0563 1.33834 -12.0563 17.8613H12.0563ZM12.0563 92.6549V17.8613H-12.0563V92.6549H12.0563ZM12.481 94.8474C12.2111 94.1865 12.0563 93.4537 12.0563 92.6549H-12.0563C-12.0563 96.6358 -11.2722 100.464 -9.83882 103.971L12.481 94.8474ZM108.138 21.508C58.2855 23.1601 15.3787 52.1094 -6.16311 93.831L15.2621 104.893C32.9441 70.6472 68.1292 46.9597 108.936 45.6073L108.138 21.508ZM98.4597 17.8613V31.5326H122.572V17.8613H98.4597ZM92.6548 12.0564C95.8609 12.0564 98.4597 14.6553 98.4597 17.8613H122.572C122.572 1.33835 109.178 -12.0562 92.6548 -12.0562V12.0564ZM17.8612 12.0564H92.6548V-12.0562H17.8612V12.0564ZM108.013 33.7998C61.7628 35.5358 22.1699 63.1427 3.23031 102.515L24.9595 112.968C40.159 81.37 71.9096 59.2847 108.917 57.8954L108.013 33.7998ZM17.8612 98.4598C17.5784 98.4598 17.3068 98.4403 17.0463 98.4046L13.7549 122.292C15.103 122.477 16.4743 122.572 17.8612 122.572V98.4598ZM92.6548 98.4598H17.8612V122.572H92.6548V98.4598ZM98.4597 92.6549C98.4597 95.861 95.8609 98.4598 92.6548 98.4598V122.572C109.178 122.572 122.572 109.178 122.572 92.6549H98.4597ZM98.4597 47.8375V92.6549H122.572V47.8375H98.4597ZM108.917 57.8954C103.095 58.1137 98.4597 53.4337 98.4597 47.8375H122.572C122.572 39.992 116.082 33.4969 108.013 33.7998L108.917 57.8954ZM108.936 45.6073C116.373 45.3609 122.572 39.289 122.572 31.5326H98.4597C98.4597 25.969 102.892 21.6818 108.138 21.508L108.936 45.6073ZM3.23031 102.515C-0.395228 110.052 3.42022 120.867 13.7549 122.292L17.0463 98.4046C24.9334 99.4913 27.5141 107.657 24.9595 112.968L3.23031 102.515ZM-9.83882 103.971C-7.50883 109.671 -2.06387 112.653 3.24182 112.497C8.24092 112.35 12.8815 109.504 15.2621 104.893L-6.16311 93.831C-4.49754 90.6054 -1.17631 88.5039 2.5348 88.3951C6.55254 88.2773 10.7409 90.5897 12.481 94.8474L-9.83882 103.971Z" fill="#7269F8"/>
</g>
</svg>
